<?xml version="1.0" encoding="UTF-8" standalone="no"?>
<svg width="72px" height="40px" viewBox="0 0 72 40" version="1.1" xmlns="http://www.w3.org/2000/svg" xmlns:xlink="http://www.w3.org/1999/xlink" xmlns:sketch="http://www.bohemiancoding.com/sketch/ns">
    <!-- Generator: Sketch 3.4.4 (17249) - http://www.bohemiancoding.com/sketch -->
    <title>Artboard 1</title>
    <desc>Created with Sketch.</desc>
    <defs></defs>
    <g id="Page-2" stroke="none" stroke-width="1" fill="none" fill-rule="evenodd" sketch:type="MSPage">
        <g id="Artboard-1" sketch:type="MSArtboardGroup" fill="#CF8100">
            <g id="RSS-Icon" sketch:type="MSLayerGroup">
                <path d="M62.405,0.405 L9.713,0.405 C4.402,0.405 0.096,4.712 0.096,10.023 L0.096,30.062 C0.096,35.374 4.402,39.681 9.713,39.681 L62.405,39.681 C67.716,39.681 72.022,35.374 72.022,30.062 L72.022,10.023 C72.022,4.712 67.716,0.405 62.405,0.405 L62.405,0.405 Z M23.908,30.698 C23.327,28.854 22.71,26.586 22.226,24.484 C21.869,22.931 20.965,22.152 19.574,22.152 C18.732,22.152 18.377,22.186 17.21,22.252 L17.21,30.698 L12.874,30.698 L12.874,9.53 C15.011,9.337 17.276,9.208 20.058,9.208 C24.621,9.208 27.501,11.797 27.501,14.743 C27.501,17.266 25.787,18.982 23.618,19.889 L23.618,19.951 C25.14,20.729 25.852,21.506 26.628,24.484 C27.21,26.781 27.825,28.691 28.538,30.698 L23.908,30.698 L23.908,30.698 Z M35.592,31.021 C33.878,31.021 31.676,30.762 30.092,30.276 L30.577,26.718 C32.324,27.234 33.718,27.461 35.788,27.461 C37.794,27.461 38.894,26.426 38.894,25 C38.894,23.835 38.31,22.931 35.983,21.765 C32,19.758 30.092,18.01 30.092,14.968 C30.092,11.538 32.745,9.208 37.438,9.208 C39.056,9.208 40.868,9.466 42.13,9.985 L41.644,13.544 C40.253,13.026 38.636,12.77 37.211,12.77 C35.692,12.77 34.752,13.578 34.752,14.58 C34.752,15.973 35.204,16.523 37.923,17.881 C41.905,19.889 43.554,21.895 43.554,24.645 C43.554,28.592 39.962,31.021 35.592,31.021 L35.592,31.021 Z M51.32,31.021 C49.604,31.021 47.403,30.762 45.82,30.276 L46.307,26.718 C48.053,27.234 49.446,27.461 51.517,27.461 C53.522,27.461 54.622,26.426 54.622,25 C54.622,23.835 54.041,22.931 51.712,21.765 C47.729,19.758 45.82,18.01 45.82,14.968 C45.82,11.538 48.474,9.208 53.165,9.208 C54.786,9.208 56.595,9.466 57.859,9.985 L57.373,13.544 C55.979,13.026 54.362,12.77 52.938,12.77 C51.418,12.77 50.479,13.578 50.479,14.58 C50.479,15.973 50.933,16.523 53.653,17.881 C57.632,19.889 59.283,21.895 59.283,24.645 C59.283,28.592 55.69,31.021 51.32,31.021 L51.32,31.021 Z" id="Fill-419" sketch:type="MSShapeGroup"></path>
                <path d="M19.669,12.77 C18.861,12.77 18.184,12.799 17.21,12.863 L17.21,18.69 C18.148,18.754 18.569,18.786 19.507,18.786 C21.611,18.786 22.843,17.525 22.843,15.647 C22.843,13.771 21.774,12.77 19.669,12.77" id="Fill-420" sketch:type="MSShapeGroup"></path>
            </g>
        </g>
    </g>
</svg>